<svg xmlns="http://www.w3.org/2000/svg" width="138" height="17" viewBox="0 0 138 17">
    <path fill="#EE3125" fill-rule="evenodd" d="M115.964.157v15.814h5.373v-5.657h1.831l6.472 5.657h7.693l-9.158-7.842L136.6.157h-7.45l-5.983 5.529h-2.076V.157h-5.128zm-103.552 0h3.663l8.06 15.814h-5.618l-1.343-2.7H7.772l-1.344 2.572H.444L8.748.157h3.664zm0 9.129h2.564l-2.564-4.629-2.443 4.629h2.443zM24.989.157v15.814h5.373v-5.657h1.832l6.472 5.657h7.693l-9.28-7.842L45.381.157h-7.205l-6.105 5.529h-2.076V.157h-5.007zm31.505 0H62.6c.855 0 2.564.9 3.175 2.7.488 1.543.122 4.114-1.099 5.014.977.386 1.587 1.929 1.587 3.472v.643c0 .257 0 .514-.122.771-.366 1.8-1.587 3.086-2.686 3.086h-16.12V.029c2.932.128 6.107.128 9.16.128zm0 11.443h3.786c.488 0 .855-.386.855-.9s-.367-.771-.855-.771h-8.182V11.6h4.396zm0-5.657h3.542c.488 0 .854-.386.854-.9s-.366-.9-.854-.9h-7.938v1.671h4.396v.129zM91.541.157v15.686h5.373V5.3l7.57 10.543h8.305V.157h-5.373v11.057L99.722.157h-8.181zm-12.7 0h3.664l8.059 15.814h-5.617l-1.466-2.7H74.08l-1.344 2.572h-5.861L75.178.157h3.663zm0 9.129h2.564l-2.564-4.629L76.4 9.286h2.442z"/>
</svg>
