<svg width="95" height="29" viewBox="0 0 95 29" fill="none" xmlns="http://www.w3.org/2000/svg">
<rect width="95" height="29" fill="white"/>
<path d="M34.1681 13.9753L43.1492 1H25.1909L34.1681 13.9753Z" fill="#FFB71B"/>
<path d="M79.0852 26.5341L80.7359 22.8319C82.0686 23.909 83.7328 24.4921 85.4464 24.4825C87.2631 24.4825 88.1715 23.8337 88.1715 22.536C88.1715 21.6406 87.7017 20.8711 86.7622 20.2275C85.9297 19.7307 85.0541 19.3098 84.1461 18.97C80.7047 17.5504 78.9853 15.5585 78.9879 12.9943C78.9211 11.2906 79.7763 9.6828 81.2264 8.786C82.4955 7.94512 84.0929 7.52338 86.0186 7.52067C88.0485 7.5121 90.0509 7.99001 91.8581 8.91447L90.5111 12.5349C89.499 11.6603 88.0832 11.223 86.2639 11.223C84.6392 11.223 83.8269 11.8718 83.8269 13.1695C83.8269 13.8508 84.3953 14.5009 85.5281 15.116C86.3514 15.5246 87.1961 15.8885 88.0586 16.206C91.352 17.5037 92.9975 19.5228 92.9949 22.2635C93.0774 24.1202 92.1614 25.8795 90.5929 26.8767C89.2252 27.7643 87.4733 28.2081 85.3374 28.2081C84.2416 28.2342 83.1473 28.115 82.0828 27.8538C81.04 27.5207 80.0352 27.0783 79.0852 26.5341ZM64.2919 26.5341L65.9464 22.8319C67.2789 23.9095 68.9433 24.4928 70.6569 24.4825C72.4737 24.4825 73.382 23.8337 73.382 22.536C73.382 21.6406 72.911 20.8711 71.9689 20.2275C71.137 19.7294 70.2614 19.3085 69.3528 18.97C65.9114 17.5504 64.1907 15.5585 64.1907 12.9943C64.1247 11.2918 64.9779 9.68492 66.4253 8.786C67.862 7.89855 69.53 7.45816 71.2175 7.52078C73.2474 7.51225 75.2498 7.99015 77.057 8.91447L75.71 12.5349C74.6927 11.6603 73.2769 11.223 71.4628 11.223C69.8407 11.223 69.0284 11.8718 69.0258 13.1695C69.0258 13.8508 69.5942 14.5009 70.727 15.116C71.5499 15.5254 72.3947 15.8893 73.2575 16.206C76.5457 17.5037 78.1912 19.5228 78.1938 22.2635C78.2763 24.1202 77.3603 25.8795 75.7918 26.8767C74.4215 27.7643 72.6683 28.2081 70.5324 28.2081C69.4379 28.234 68.3449 28.1148 67.2817 27.8538C66.2419 27.5193 65.2398 27.077 64.2919 26.5341ZM48.938 15.7934H58.7289C58.4044 12.8788 56.7902 11.4202 53.886 11.4176C51.2206 11.4099 49.5713 12.8684 48.938 15.7934ZM63.0072 19.297H48.7745C48.8602 20.9321 49.4272 22.1882 50.4757 23.0654C51.4698 23.9063 52.7999 24.3281 54.466 24.3307C56.5812 24.3307 58.1942 23.7753 59.305 22.6645L61.0997 26.2227C59.4646 27.5463 57.0237 28.2081 53.777 28.2081C50.6626 28.2081 48.2321 27.2997 46.4854 25.483C44.7388 23.6663 43.8784 21.2098 43.9044 18.1136C43.9044 15.1523 44.8128 12.6738 46.6295 10.678C48.4409 8.62494 51.0714 7.48371 53.8081 7.56361C56.6059 7.56361 58.8924 8.38632 60.6676 10.0318C62.4843 11.7291 63.3926 13.9663 63.3926 16.7432C63.3489 17.6144 63.2185 18.479 63.0034 19.3243M39.2328 27.8149L34.1019 21.3253L29.7456 27.8149H24.2332L31.6493 17.6231L24.6147 7.89062H29.952L34.1681 13.9714L38.3803 7.88283H43.6864L36.5077 17.6153L44.8543 27.8071L39.2328 27.8149ZM6.77316 17.7944C6.7304 19.3372 7.38021 20.8182 8.54447 21.8314C9.6593 22.8868 11.1481 23.4554 12.6827 23.4119C14.2189 23.4438 15.7058 22.8689 16.8209 21.8119C17.9697 20.7939 18.6226 19.3292 18.6117 17.7944C18.6117 15.6376 17.6229 14.0195 15.6453 12.9398C14.7395 12.4338 13.7202 12.1659 12.6827 12.1612C11.1467 12.1467 9.66436 12.7255 8.54447 13.7768C7.3974 14.7943 6.75067 16.2612 6.77316 17.7944ZM18.2886 7.84779H23.0575V27.7409H18.2886V25.5959C16.394 27.3451 14.3891 28.2081 12.2739 28.1847C9.51526 28.2385 6.8665 27.1041 5.00185 25.0703C3.05669 23.0823 1.97878 20.4043 2.00426 17.6231C1.92045 14.7729 3.07642 12.0264 5.17315 10.094C7.00697 8.32455 9.4691 7.35679 12.017 7.40399C13.3321 7.40028 14.6351 7.65559 15.8516 8.15534C16.818 8.61952 17.655 9.31483 18.2886 10.1797V7.84779Z" fill="#121517"/>
</svg>
