<svg xmlns="http://www.w3.org/2000/svg" width="156" height="28" viewBox="0 0 156 28">
    <path fill="#E11931" d="M18.142 16.183c.036 1.622-.06 3.244-.285 4.851-.296 1.754-.914 3.103-1.852 4.046-1.265 1.264-2.973 1.897-5.123 1.9-1.99.067-3.908-.746-5.245-2.224v1.983H.556V.833H5.8v6.694c1.26-1.394 2.955-2.09 5.082-2.09s3.835.632 5.123 1.898c.927.946 1.544 2.295 1.852 4.046.225 1.594.32 3.203.285 4.813v-.01zm-5.244.01c0-1.997-.202-3.427-.605-4.29-.512-1.16-1.494-1.741-2.944-1.741s-2.432.58-2.944 1.742c-.403.864-.605 2.294-.605 4.29 0 1.995.202 3.437.605 4.324.508 1.162 1.489 1.743 2.944 1.743 1.455 0 2.436-.581 2.944-1.743.403-.86.605-2.3.605-4.324zM60.862 26.75h-5.245V14c0-1.323-.378-2.32-1.133-2.994-.642-.575-1.48-.88-2.34-.85-.871-.033-1.722.271-2.377.85-.755.676-1.132 1.674-1.13 2.993v12.74h-5.244V5.68h5.127v1.941c1.354-1.449 3.265-2.244 5.244-2.181 2.067 0 3.72.619 4.96 1.857 1.425 1.431 2.138 3.427 2.138 5.987v13.465zM34.672 5.68h5.19v21.073h-5.19v-2.475c-1.71 1.82-3.55 2.728-5.522 2.725-2.489 0-4.545-1.02-6.17-3.06-1.621-2.09-2.432-4.689-2.432-7.795 0-3.06.81-5.615 2.432-7.666 1.448-1.903 3.69-3.03 6.076-3.056 3.128-.143 4.824 1.07 5.634 2.934l-.017-2.68zm-.264 10.503c0-1.998-.246-3.428-.74-4.29-.62-1.161-1.819-1.742-3.594-1.742s-2.973.58-3.594 1.742c-.488.865-.734 2.295-.736 4.29-.003 1.996.243 3.437.736 4.325.626 1.161 1.824 1.742 3.594 1.742 1.77 0 2.969-.58 3.594-1.742.494-.86.74-2.301.74-4.325zm120.696 10.531h-2.864c-1.993 0-3.54-.634-4.64-1.902-.983-1.144-1.502-2.617-1.453-4.126V10.252h-3.09l.859-4.607h2.217V.801h5.266v4.844h3.712v4.607h-3.712v10.106c0 1.268.605 1.903 1.814 1.903h1.898l-.007 4.453zM141.48 5.524c-.52-.083-1.044-.124-1.57-.123-2.26 0-4.022.755-5.287 2.265V5.642h-5.12v21.072h5.242V14.012c-.057-1.092.338-2.16 1.091-2.951.598-.626 1.434-.965 2.297-.93l2.322.024c.348-1.548.518-3.137 1.025-4.632zm-20.742.156h5.189v21.073h-5.19v-2.475c-1.71 1.82-3.55 2.728-5.522 2.725-2.489 0-4.545-1.02-6.17-3.06-1.621-2.09-2.432-4.689-2.432-7.795 0-3.06.81-5.615 2.433-7.666 1.443-1.9 3.677-3.028 6.058-3.06 3.128-.143 4.824 1.07 5.634 2.934V5.68zm-.271 10.503c0-1.998-.247-3.428-.74-4.29-.622-1.161-1.82-1.742-3.594-1.742-1.775 0-2.973.58-3.594 1.742-.49.865-.735 2.295-.737 4.29-.002 1.996.243 3.437.737 4.325.625 1.161 1.823 1.742 3.594 1.742 1.77 0 2.968-.58 3.593-1.742.494-.86.74-2.301.74-4.325zM82.716.801L68.679 14.894V5.767h-4.817v21.024L89.776.8h-7.06zm23.173 0L91.84 14.894V5.767h-4.807v21.024L112.951.8h-7.062zm-9.78 19.76l3.85 6.178h6.222l-6.336-9.908-3.737 3.73zm-23.211 0l3.854 6.178h6.218l-6.336-9.908-3.736 3.73z"/>
</svg>
