<svg xmlns="http://www.w3.org/2000/svg" xmlns:xlink="http://www.w3.org/1999/xlink" width="154" height="35" viewBox="0 0 154 35">
    <defs>
        <path id="prefix__a" d="M0 0.226L14.146 0.226 14.146 19.966 0 19.966z"/>
        <path id="prefix__c" d="M0 33.079L152.856 33.079 152.856 0 0 0z"/>
    </defs>
    <g fill="none" fill-rule="evenodd" transform="translate(.556 .171)">
        <path fill="#00519A" d="M19.754 20.006c0-.97.37-1.807 1.13-1.807.72 0 1.227.863 1.227 1.807h-2.357zm7.306 2.88c.253-5.21-2.65-8.404-6.333-8.404-3.293 0-5.942 2.879-5.942 7.487 0 4.79 2.981 7.042 6.235 7.042 2.376 0 5.163-1.545 5.826-4.896h-4.891c-.097.656-.487 1.153-1.013 1.153-1.052 0-1.188-1.256-1.188-2.383h7.306zM33.643 14.796h-4.91v13.9h5.027v-6.78c0-.81 0-1.964.839-1.964.856 0 .856 1.153.856 1.964v6.78h5.028v-8.56c0-3.062-1.015-5.655-3.586-5.655-1.616 0-2.358 1.021-3.33 2.539h-.119l.195-2.224zM59.556 15.581L59.556 14.795 48.898 14.795 48.898 19.177 51.333 19.177 52.482 18.994 52.482 19.098 48.392 27.755 48.392 28.697 59.302 28.697 59.302 24.273 56.438 24.273 55.406 24.431 55.406 24.273 56.477 21.708zM95.514 14.796h-5.312v13.9h5.428v-6.78c0-.81 0-1.964.839-1.964.856 0 .856 1.153.856 1.964v6.78h5.027v-8.56c0-3.062-1.013-5.655-3.584-5.655-1.618 0-2.359 1.021-3.332 2.539h-.117l.195-2.224zM103.833 28.697L108.967 28.697 108.976 21.72 111.384 28.697 117.456 28.697 113.654 20.969 117.37 14.796 111.485 14.796 109.188 20.669 108.86 19.952 108.86 9.085 103.833 9.085zM66.553 20.687h.525c.859 0 2.222-.027 2.222 1.622s-1.267 1.675-2.143 1.675h-.604v-3.297zm-5.408 8.01h8.379c2.572 0 5.377-1.388 5.377-5.446 0-2.382-.987-3.683-2.918-4.683 2.145-1.203 2.451-2.227 2.451-3.955 0-4.095-3.981-5.656-5.963-5.656h-7.326v19.74zm5.408-12.174v-2.802h.37c.78 0 1.774-.104 1.774 1.336 0 1.362-.877 1.466-1.658 1.466h-.486zM80.8 21.68c0-1.02.506-2.705 1.305-2.705.8 0 1.344 1.58 1.344 2.653 0 1.074-.251 2.946-1.206 2.946-.916 0-1.443-1.794-1.443-2.894zm2.494 7.017h5.388V14.796h-5.388l.155 1.648h-.117c-.74-1.361-1.772-1.963-3.02-1.963-3.276 0-4.5 3.822-4.5 7.331 0 3.377 1.558 7.2 4.364 7.2 1.423 0 2.24-.84 3.156-2.148h.117l-.155 1.833z"/>
        <g transform="translate(0 8.731)">
            <mask id="prefix__b" fill="#fff">
                <use xlink:href="#prefix__a"/>
            </mask>
            <path fill="#00519A" d="M5.34 5.03h.33c1.948 0 3.136 2.552 3.136 5.328 0 2.591-1.363 4.734-3.137 4.734h-.33V5.03zM0 19.967H6.76c4.306 0 7.385-3.718 7.385-9.582 0-7.252-3.78-10.158-8.71-10.158H0v19.74z" mask="url(#prefix__b)"/>
        </g>
        <mask id="prefix__d" fill="#fff">
            <use xlink:href="#prefix__c"/>
        </mask>
        <path fill="#00519A" d="M42.28 28.697h5.028V14.796H42.28v13.9zm.274-15.168h4.482V9.256h-4.482v4.273z" mask="url(#prefix__d)"/>
        <path fill="#FEFEFE" d="M123.482 14.375c.327-1.831 1.052-3.529 2.085-5.002l-1.365-1.34c-.907-.888-.914-2.321-.017-3.2s2.357-.871 3.263.017l1.343 1.317c1.516-1.053 3.272-1.794 5.171-2.132v-1.76c0-1.256 1.029-2.275 2.295-2.275 1.268 0 2.296 1.02 2.296 2.276v1.746c1.928.331 3.71 1.079 5.246 2.145l1.218-1.193c.904-.89 2.366-.897 3.261-.018.898.88.89 2.312-.016 3.201l-1.24 1.216c1.032 1.473 1.757 3.168 2.083 5h1.432c1.28 0 2.319 1.007 2.319 2.25 0 1.245-1.039 2.252-2.32 2.252h-1.444c-.344 1.864-1.1 3.586-2.172 5.074l1.094 1.073c.905.89.914 2.321.016 3.2-.895.88-2.356.872-3.262-.016l-1.116-1.095c-1.503 1.012-3.232 1.723-5.1 2.043v1.649c0 1.256-1.027 2.276-2.295 2.276-1.266 0-2.295-1.02-2.295-2.276v-1.661c-1.837-.326-3.543-1.032-5.024-2.031l-1.242 1.218c-.906.89-2.367.896-3.263.017-.897-.879-.89-2.312.016-3.2l1.221-1.197c-1.073-1.488-1.832-3.212-2.175-5.077l-.122.003h-1.922c-1.28 0-2.319-1.007-2.319-2.251s1.039-2.25 2.32-2.25h1.92l.11.001z" mask="url(#prefix__d)"/>
        <path fill="#CD152C" d="M124.557 17.884h-2.755c-.854 0-1.548-.564-1.548-1.26 0-.695.694-1.26 1.548-1.26h2.747c.24-2.24 1.13-4.288 2.482-5.963l-1.867-1.826c-.604-.592-.686-1.471-.185-1.963.5-.492 1.398-.411 2.002.182l1.85 1.815c1.716-1.373 3.832-2.284 6.152-2.535l-.01-2.455c0-.838.575-1.517 1.284-1.517.71 0 1.285.679 1.285 1.517v2.45c2.347.24 4.489 1.156 6.221 2.545l1.721-1.697c.603-.592 1.5-.674 2-.182.502.492.42 1.371-.184 1.963l-1.74 1.707c1.35 1.674 2.24 3.722 2.48 5.96h2.273c.853 0 1.546.564 1.546 1.26 0 .695-.693 1.259-1.546 1.259h-2.281c-.258 2.268-1.183 4.34-2.579 6.019l1.689 1.665c.602.593.685 1.471.184 1.963-.501.492-1.398.411-2.002-.18l-1.705-1.674c-1.705 1.323-3.792 2.196-6.071 2.432l-.006 2.474c0 .838-.575 1.518-1.285 1.518s-1.283-.68-1.283-1.518v-2.482c-2.252-.245-4.311-1.112-5.999-2.42l-1.835 1.792c-.605.592-1.5.674-2.003.182-.502-.493-.417-1.371.186-1.964l1.817-1.782c-1.398-1.681-2.326-3.754-2.583-6.025zm5.74 3.459c-.88-1.066-1.469-2.37-1.653-3.8l3.896.006c.106.4.276.774.5 1.111l-2.743 2.683zm4.9 2.732c-1.33-.185-2.551-.704-3.573-1.468l2.765-2.704c.252.14.52.252.804.335l.005 3.837zm5.832-1.516c-1.12.854-2.485 1.413-3.975 1.556l-.004-3.794c.439-.085.85-.243 1.222-.46l2.757 2.698zm2.911-4.996c-.182 1.394-.75 2.668-1.598 3.717l-2.75-2.689c.201-.316.355-.663.453-1.033l3.895.005zm-1.497-5.54c.819 1.06 1.36 2.34 1.516 3.732l-3.88-.005c-.083-.363-.22-.706-.4-1.022l2.764-2.704zm-5.408-2.964c1.555.146 2.975.744 4.122 1.66l-2.742 2.682c-.41-.262-.876-.452-1.376-.546l-.004-3.796zm-5.54 1.61c1.04-.814 2.303-1.37 3.683-1.565l.005 3.838c-.334.098-.649.238-.938.416l-2.75-2.69zm-2.863 5.066c.162-1.412.72-2.707 1.563-3.774l2.756 2.696c-.2.332-.35.696-.44 1.083l-3.88-.005z" mask="url(#prefix__d)"/>
    </g>
</svg>
