<svg xmlns="http://www.w3.org/2000/svg" width="147" height="33" viewBox="0 0 147 33">
    <defs>
        <linearGradient id="prefix__a" x1="60.144%" x2="77.726%" y1="-8.42%" y2="83.229%">
            <stop offset="0%" stop-color="#84BD00"/>
            <stop offset="100%" stop-color="#FEFEFE"/>
        </linearGradient>
        <linearGradient id="prefix__b" x1="4.918%" x2="67.664%" y1="133.005%" y2="148.939%">
            <stop offset="42.188%" stop-color="#006FC5"/>
            <stop offset="100%" stop-color="#84BD00"/>
        </linearGradient>
        <linearGradient id="prefix__c" x1="208.539%" x2="227.769%" y1="-10.38%" y2="69.299%">
            <stop offset="25.967%" stop-color="#006FC5"/>
            <stop offset="100%" stop-color="#84BD00"/>
        </linearGradient>
        <linearGradient id="prefix__d" x1="-8.992%" x2="88.81%" y1="-29.857%" y2="-43.244%">
            <stop offset="0%" stop-color="#84BD00"/>
            <stop offset="100%" stop-color="#FEFEFE"/>
        </linearGradient>
    </defs>
    <g fill="none" fill-rule="evenodd">
        <g fill-rule="nonzero">
            <path fill="#FFF" d="M15.641 0L0 15.585 15.731 30.988 31.19 15.585z" transform="translate(.111 .171)"/>
            <g>
                <path fill="url(#prefix__a)" d="M11.799 16.831L14.163 0.34 28.349 14.294z" transform="translate(.111 .171) translate(1.296 1.291)"/>
                <path fill="url(#prefix__b)" d="M0.159 14.203L14.163 0.34 11.799 16.831z" transform="translate(.111 .171) translate(1.296 1.291)"/>
                <path fill="url(#prefix__c)" d="M11.799 16.831L0.159 14.203 14.345 28.247z" transform="translate(.111 .171) translate(1.296 1.291)"/>
                <path fill="url(#prefix__d)" d="M28.349 14.294L11.799 16.831 14.345 28.247z" transform="translate(.111 .171) translate(1.296 1.291)"/>
            </g>
        </g>
        <path fill="#0055B8" d="M74.511 10.891c-1.273 0-2.273.181-3.583.508-.2.054-.327.18-.382.344-.054.217-.018.417.055.616.2.471.545 2.066 1.11 1.993.545-.108 1.236-.199 1.727-.253.727-.073 1.11-.073 1.51-.018.854.108 1.309.706 1.309 1.794v.924c-.928-.181-2.092-.38-3.383-.38-3.419 0-3.82 1.72-3.82 3.877 0 2.52.728 4.331 3.82 4.331 2.055 0 6.93-.344 6.93-2.392v-6.234c-.019-3.334-1.747-5.11-5.293-5.11zm1.746 10.656c-.473.2-1.31.453-2.328.453-1.073 0-1.328-.453-1.328-1.45 0-1.123.255-1.577 1.328-1.577.946 0 1.91.218 2.328.454v2.12zM63.453 10.946c-1.127 0-2.528.326-3.782.906V7.267c0-.67-.4-.924-.91-.924-.654 0-2.637.054-2.637.598v15.53c0 .471.182.797.546 1.07 1.564 1.032 5.365 1.105 6.802 1.105 2.8 0 3.692-1.559 3.692-4.857v-4.023c0-2.519-.037-4.82-3.71-4.82zm.182 8.97c0 .942-.182 1.794-.909 1.794-1.2 0-3.055-.254-3.055-.417v-6.596c.673-.345 1.855-.598 3.055-.598.727 0 .91.851.91 1.776v4.04zm62.454-2.972l3.364-5.455c.31-.543 1.564-.598 2.073-.598 1.146 0 1.583.254 1.528.67 0 .146-.073.309-.146.472l-3.292 5.2c1.329 2.121 3.583 5.655 3.984 6.742.072.453-.346.652-1.455.652-.31 0-1.855-.018-2.2-.706l-3.856-6.397v6.18c0 .67-.4.923-.91.923-.654 0-2.637-.054-2.637-.598V6.941c0-.544 1.983-.598 2.637-.598.51 0 .91.253.91.924v9.677zm-10.022-.58c0-1.178-.108-2.229-.872-2.229-1.328 0-3.038.417-3.038.652v9.17c0 .399-.473.67-.909.67-.618 0-2.637-.054-2.637-.598V13.301c0-1.105 3.183-2.392 7.147-2.392 3.638 0 3.856 2.392 3.856 4.875v8.191c0 .399-.51.67-.946.67-.654 0-2.6-.054-2.6-.597v-7.684zM49.45 9.333V6.977c0-.544 1.982-.616 2.6-.616.473 0 .928.272.928.706v2.211c0 .399-.455.67-.928.67-.618-.017-2.6-.072-2.6-.615zm3.619 2.537V23.72c0 .67-.4.925-.91.925-.654 0-2.637-.055-2.637-.598V11.544c0-.544 1.983-.598 2.637-.598.51 0 .91.253.91.924zM40.502 23.866c0 .399-.455.78-.928.78-.654 0-2.837-.145-2.837-.67V6.994c0-.38.418-.652.91-.652h9.711c.4 0 .673.453.673.87 0 .616-.073 2.482-.6 2.482h-6.93v3.824h5.475c.346 0 .618.453.618.87 0 .616-.054 2.482-.545 2.482h-5.547v6.995zm60.361-12.975c-1.273 0-2.291.181-3.582.508-.2.054-.328.18-.382.344-.055.217-.018.417.054.616.2.471.546 2.066 1.11 1.993.545-.108 1.236-.199 1.727-.253.728-.073 1.11-.073 1.51-.018.854.108 1.31.706 1.31 1.794v.924c-.928-.181-2.074-.38-3.383-.38-3.42 0-3.82 1.72-3.82 3.877 0 2.52.728 4.331 3.82 4.331 2.055 0 6.929-.344 6.929-2.392v-6.234c-.018-3.334-1.746-5.11-5.293-5.11zm1.728 10.656c-.473.2-1.31.453-2.328.453-1.073 0-1.327-.453-1.327-1.45 0-1.123.254-1.577 1.327-1.577.946 0 1.91.218 2.328.454v2.12zM89.806 10.946c-1.128 0-2.528.326-3.783.906V7.267c0-.67-.4-.924-.91-.924-.654 0-2.636.054-2.636.598v15.53c0 .471.182.797.545 1.07 1.546 1.032 5.365 1.105 6.802 1.105 2.8 0 3.692-1.559 3.692-4.857v-4.023c0-2.519-.054-4.82-3.71-4.82zm.182 8.97c0 .942-.182 1.794-.91 1.794-1.2 0-3.055-.254-3.055-.417v-6.596c.673-.345 1.855-.598 3.056-.598.727 0 .909.851.909 1.776v4.04zm50.231-9.025c-1.273 0-2.273.181-3.583.508-.2.054-.327.18-.381.344-.055.217-.018.417.054.616.2.471.546 2.066 1.11 1.993.546-.108 1.236-.199 1.727-.253.728-.073 1.11-.073 1.51-.018.855.108 1.31.706 1.31 1.794v.924c-.928-.181-2.074-.38-3.383-.38-3.42 0-3.82 1.72-3.82 3.877 0 2.52.728 4.331 3.82 4.331 2.055 0 6.929-.344 6.929-2.392v-6.234c-.018-3.334-1.746-5.11-5.293-5.11zm1.746 10.656c-.473.2-1.309.453-2.328.453-1.072 0-1.327-.453-1.327-1.45 0-1.123.255-1.577 1.327-1.577.946 0 1.91.218 2.328.454v2.12z" transform="translate(.111 .171)"/>
    </g>
</svg>
