<svg xmlns="http://www.w3.org/2000/svg" xmlns:xlink="http://www.w3.org/1999/xlink" width="160" height="30" viewBox="0 0 160 30">
    <defs>
        <radialGradient id="prefix__b" cx="50%" cy="53.87%" r="72.02%" fx="50%" fy="53.87%" gradientTransform="matrix(.31031 .52504 -.95355 .17191 .859 .184)">
            <stop offset="0%" stop-color="#83B65E"/>
            <stop offset="100%" stop-color="#1D6547"/>
        </radialGradient>
        <path id="prefix__a" d="M5.284.791c-1.042.646-1.478 2.12-1.558 2.433 3.004 1.83 4.898 4.268 5.96 5.997.872 1.423 1.34 2.61 1.52 3.117.278-.89.304-1.784.304-2.072v-.095c-.05-2.678-.526-4.994-1.378-6.699C9.328 1.867 8.228.858 6.948.553 6.749.506 6.556.482 6.37.482c-.391 0-.755.103-1.086.31m8.875 2.6c-1.51 1.33-1.705 5.123-1.777 6.551l-.015.257c-.012.207-.016.422-.016.64 0 .833.075 1.682.111 2.057 1.869-1.467 3.05-3.36 3.717-4.708.696-1.405.988-2.519 1.024-2.668-.189-2.377-1.663-2.575-1.72-2.582-.048-.003-.096-.005-.142-.005-.442 0-.838.153-1.182.457M.212 7.442v.052c0 1.981 1.61 3.995 4.023 5.02 2.351 1.001 4.054 1 5.066.821.903-.157 1.433-.477 1.596-.589-1.013-2.533-2.544-4.77-4.553-6.651-1.616-1.514-2.929-2.216-3.152-2.33C1.294 4.52.235 5.824.212 7.442m16.371.951c-.658 1.35-1.858 3.275-3.846 4.868.272.073.817.18 1.49.077 1.283-.196 2.454-1.055 3.388-2.488.637-.976.958-1.886.958-2.713 0-.22-.023-.437-.07-.646-.19-.861-.732-1.385-.983-1.586-.091.367-.36 1.301-.937 2.488m-3.517 5.99c.801.642 3.13 2.85 4.342 7.581.279-.326.805-1.028 1.057-1.935.096-.344.145-.683.145-1.015 0-1.001-.436-1.944-1.302-2.814-1.559-1.567-2.997-1.843-3.817-1.843-.17 0-.312.011-.425.026m-3.992.126c-1.204.047-3.161.443-5.66 2.067C1.445 17.854.412 19.304.412 20.784c0 .067.002.134.006.2.09 1.42 1.179 2.777 2.914 3.631.22-.13 1.324-.826 2.712-2.232 1.419-1.433 3.425-3.915 4.974-7.618-.201-.077-.778-.261-1.677-.261-.086 0-.176.002-.268.005m3.471 2.206v.469l-.001.374c0 1.616.084 4.906 1.368 6.181.358.355.791.534 1.289.53h.007l.01.002c.06.01 1.466.194 1.81-1.907-.099-.381-1.493-5.624-4.308-7.7-.059.31-.175 1.064-.175 2.051m-5.852 5.999c-1.372 1.498-2.514 2.334-2.767 2.515.115.418.892 2.955 2.824 2.955 2.109 0 3.367-2.87 3.381-2.902.007-.014.678-1.448 1.146-3.437.243-1.026.459-2.322.459-3.688 0-.986-.116-2.008-.41-2.994-1.315 3.488-3.236 6.026-4.633 7.55"/>
    </defs>
    <g fill="none" fill-rule="evenodd" transform="translate(0 .714)">
        <path fill="#002E6D" d="M123.015 6.243c2.77 0 4.733 1.689 4.733 4.177 0 1.46-.693 2.648-1.8 3.195l.135.046c1.477.57 2.4 1.963 2.4 3.766 0 3.173-2.008 4.793-5.817 4.793h-7.61c-.17 0-.308-.136-.308-.304V6.547c0-.168.138-.304.307-.304zm-16.713 0c2.77 0 4.732 1.689 4.732 4.177 0 1.46-.693 2.648-1.8 3.195l.135.046c1.478.57 2.401 1.963 2.401 3.766 0 3.173-2.008 4.793-5.818 4.793h-7.61c-.17 0-.308-.136-.308-.304V6.547c0-.168.138-.304.308-.304zm25.134 0c.114 0 .219.062.272.162l5.314 9.995c.116.216.43.216.545 0l5.31-9.995c.053-.1.158-.162.272-.162h2.586c.175 0 .287.184.204.336l-8.367 15.48c-.116.215-.426.215-.542 0l-8.366-15.48c-.083-.152.029-.336.204-.336zm-8.88 8.809h-4.83c-.17 0-.309.136-.309.304V19.6c0 .168.138.304.308.304h4.788c2.304 0 3.3-.852 3.3-2.402 0-1.787-.974-2.42-3.256-2.45zm-16.713 0h-4.831c-.17 0-.308.136-.308.304V19.6c0 .168.138.304.308.304h4.788c2.304 0 3.3-.852 3.3-2.402 0-1.787-.975-2.42-3.257-2.45zM150.85 4.087c.116-.214.426-.214.542 0l8.366 15.481c.082.152-.03.336-.204.336h-2.568c-.114 0-.219-.062-.272-.162l-5.315-9.994c-.115-.217-.428-.217-.544 0l-5.31 9.993c-.053.1-.158.163-.272.163h-2.586c-.175 0-.286-.184-.203-.336zm-28.401 4.466h-4.72c-.17 0-.308.136-.308.304v3.576c0 .169.138.305.307.305h4.721c1.743-.032 2.626-.805 2.626-2.35 0-1.356-.927-1.835-2.626-1.835zm-16.714 0h-4.72c-.17 0-.308.136-.308.304v3.576c0 .169.138.305.308.305h4.72c1.744-.032 2.627-.805 2.627-2.35 0-1.356-.927-1.835-2.627-1.835z"/>
        <path fill="#231F20" d="M31.083 5.224c2.394 0 3.256.302 4.531.737l-.42 2.089c-1.319-.522-2.704-.783-4.11-.783-1.803 0-3.216.63-4.403 1.847-1.187 1.24-1.78 2.826-1.78 4.74 0 2.085.527 3.76 1.604 4.976 1.056 1.218 2.445 1.848 4.336 1.848.99 0 1.803-.13 2.485-.391v-4.108c0-.282-.005-.541-.014-.783h-2.22c-.03-.727-.127-1.49-.242-1.934l5.4.183c-.185.585-.216 1.293-.22 2.453v2.385c0 1.478.087 2.478.22 2.978-1.87.76-3.738 1.152-5.629 1.152-2.792 0-4.946-.761-6.507-2.283-1.539-1.521-2.433-3.559-2.433-6.166 0-2.631.96-4.788 2.675-6.462 1.693-1.652 3.935-2.478 6.727-2.478zm11.613 5.086c3.166 0 4.64 1.044 4.64 4.282v4.978c0 .912.043 2.021.218 2.673H44.94l-.198-1.152c-.924.935-2.045 1.456-3.386 1.434-1.957-.043-3.518-1.152-3.562-3.26-.088-3.716 3.825-4.89 6.904-3.956 0-1.673.11-3.412-2.133-3.412-1.231 0-2.506.24-3.583.805l.307-1.63c1.143-.5 2.155-.762 3.408-.762zm17.83 0c3.167 0 4.627 1.044 4.627 4.282v5.166c.004.898.038 2.089.22 2.485h-2.617c-.126-.414-.185-1.152-.185-1.152-.923.935-2.058 1.456-3.398 1.434-1.957-.043-3.518-1.151-3.561-3.26-.09-3.716 3.824-4.89 6.902-3.956 0-1.673.11-3.412-2.132-3.412-.768 0-1.553.093-2.295.3-.45.125-.883.292-1.289.504l.308-1.643c1.143-.5 2.168-.748 3.42-.748zm22.732-2.695v3h2.99v1.608h-2.99v6.542c0 1.24.527 1.848 1.54 1.848.636 0 1.274-.152 1.955-.5l.22 1.522c-1.099.565-2.155.847-3.144.847-1.209 0-2.066-.37-2.616-1.087-.374-.5-.571-1.413-.571-2.717v-6.455h-1.825V10.81l1.825-.217.197-2.804 2.419-.174zm6.652 2.782c1.275 0 1.145 1.196 1.145 2.522v6.6c.004 1.336.04 2.382.22 2.724h-3.058c.188-.34.217-1.093.22-2.402l.001-6.292c0-1.399-.189-2.046-.68-2.369.942-.492 1.74-.783 2.152-.783zm-15.941-.109c1.32 0 2.287.457 2.88 1.391.132.219.237.497.314.837.115.508.17 1.153.17 1.946v4.847c0 1.918.083 2.72.176 2.934h-2.906c.094-.234.097-.784.107-1.41.007-.482.007-1.06.007-1.742v-4.564c0-1.564-.484-2.282-1.65-2.282-.9 0-1.956.63-2.79 1.37v5.737c0 .657.01 1.264.035 1.767.026.494.063.887.118 1.124h-2.88c.11-.479.132-1.434.132-2.804v-5.934c0-1.455-.238-2.043-.68-2.325 1.023-.509 1.651-.761 2.12-.761.85 0 1.043.742 1.066 1.674 1.011-1.022 2.44-1.805 3.78-1.805zm-18.593 0c.22 0 .44.022.638.066l-.375 2c-.197-.022-.394-.022-.659-.022-.835 0-1.67.435-2.484 1.348v5.846c0 1.717.068 2.52.153 2.717H49.77c.041-.179.07-.4.09-.657.035-.474.04-1.066.041-1.712v-6.369c0-1.326-.22-2.059-.684-2.325.825-.428 1.61-.761 2.117-.761.88 0 1.052.804 1.052 1.696.814-1.218 1.825-1.827 2.99-1.827zm7.138 6.26c-2.506-.652-4.242.565-4.242 2.391 0 1.239.747 1.74 1.934 1.74.858 0 1.65-.349 2.308-.87zm-17.817 0c-2.507-.652-4.244.565-4.244 2.391 0 1.239.748 1.739 1.935 1.739.858 0 1.65-.348 2.309-.87zM89.6 6.255c.431 0 .798.128 1.1.448.302.276.452.638.452 1.086 0 .426-.15.788-.452 1.086-.302.32-.669.448-1.1.448-.45 0-.818-.15-1.098-.448-.3-.298-.453-.66-.453-1.086 0-.15.017-.29.05-.42.068-.26.203-.482.403-.666.28-.298.647-.448 1.098-.448z"/>
        <mask id="prefix__c" fill="#fff">
            <use xlink:href="#prefix__a"/>
        </mask>
        <path fill="url(#prefix__b)" d="M-2.452 13.28v.068c.011 11.199 5.035 20.32 11.22 20.37 6.174.05 11.172-8.954 11.181-20.124v-.065c-.01-11.2-5.034-20.32-11.22-20.37h-.052c-6.15-.002-11.12 8.983-11.13 20.121" mask="url(#prefix__c)"/>
    </g>
</svg>
