<svg xmlns="http://www.w3.org/2000/svg" width="124" height="33" viewBox="0 0 124 33">
    <g fill="none" fill-rule="evenodd">
        <path fill="#FFF" d="M111.361 15.22L108.912 13.346 107.764 13.581 106.922 15.22 102.559 15.844 99.574 12.956 96.666 5.698 95.901 2.185 93.451 1.717 90.773 2.966 87.175 1.639 85.032 2.185 84.344 3.902 83.119 6.166 82.736 9.912 84.114 15.064 82.966 16.859 84.573 20.527 83.119 23.103 82.201 25.99 80.287 25.756 77.838 26.849 76.919 28.254 77.073 30.049 77.608 30.283 81.129 30.439 88.247 30.283 89.242 30.595 94.753 30.595 109.83 30.595 113.657 27.786 112.968 18.732 111.361 15.22M114.805 7.415l-1.377-2.888-.307-.234-.842-.234-2.678.858-.153 1.561.076.234s.23.39.383.625c.23.156 1.99.78 1.99.78l2.908-.702" transform="translate(.778 .943)"/>
        <path fill="#FF671D" fill-rule="nonzero" d="M88.477 11.317c-.154-.312-.613 0-.995-.156 0 .156 0 .312.23.468.305-.234.688-.312.765-.312zm.688-4.449c0-.156-.153-.312-.382-.468h-1.99c0 .312.23.468.459.468 0 .313.23.39.306.469.23.156.306.156.612 0 .23.156.307-.156.383 0 0 .546 0 .702-.076 1.17-.077.625-.613.469-.995.78 0 .235-.23.703 0 .937.23-.156.382-.234.841-.39 0-.234.23-.468.613-.702 0-.78.23-1.483.23-2.264zm3.674 4.84v-.39h-.842l-.076.077.918.312zM88.017 3.98c-.076-.781-.995-.937-1.377-1.25h-.306c-.613.235-.766.937-.842 1.484.23.78.688.234.995.78.306-.234 1.071-.858 1.53-1.014zm1.76.936c-.152-.156-.688.078-.918.156-.306.078-.612.312-.612.625h.918c.153-.235.46-.625.613-.78zm4.057 1.795s.153 0 0-.078l-1.76-.234c-.153.234-.613.234-.613.468h-.153c.153.703.153 1.405.153 2.186.307.078.69.234.69.78.305.156.688.234.994.469.153-.079.23-.313.306-.625-.306-.39-.995-.156-.995-.936l-.459-.157c0-.468 0-.936-.076-1.326l.076-.078c0 .078.077.156.23.312.306 0 .689.078.995-.156.153-.078.153-.469.306-.469.077 0 .23 0 .306-.156zM92.61 5.698c0-.235-.077-.235-.154-.235-.382 0-.382-.702-.765-.468-.153 0-.306-.156-.536 0 0 .078 0 .078.153.078.383 0 .23.625.613.703h.689v-.078zm2.755-.547c.153-.39.153-1.17-.153-1.56-.153-.313-.613-.469-.995-.86l-.612.391c-.307.156-.46.468-.46.937.536.234 1.072.936 1.378 1.404h.23c.306-.312.459 0 .612-.312zM78.45 28.41c-.076 0-.306-.234-.612-.234-.23.468 0 .858 0 1.405 0 .234-.077.546-.077.546-.153 0-.459-.312-.535-.702v-1.327l.688-.937c.536.312.69.859.536 1.249zm2.067-.937c0 .313-.077.703-.23.937-.076-.312-.306-.78-.689-.78-.306.702-.382.936-.076 1.95-.23.235-.383.313-.766.547-.153-.312-.153-.937-.153-1.249 0-.624.077-1.17.23-1.639.23-.234.383-.702.689-.858h.842c-.383 0-.383.39-.383.624.23 0 .536.078.536.468zm2.908.547c0 .702-1.071 1.56-1.071 1.56 0-.39.23-.936.23-1.404 0 0-.307-.312-.69-.312-.23.156-.23.312-.306.624-.23.468-.765 1.015-.842 1.483-.076 0-.076-.078-.076-.078 0-.859.076-2.264.612-2.888.383-.468.765-.468 1.225-.624l.382.078-.306.468c.383.234.842.546.842 1.093zm2.296-.859l-.23.859-.535-1.483c-.689-.625-1.378-.703-1.837-1.015-.306-.078-.306.156-.46 0 0-.156 0-.39.23-.702h.46l.459.234c.23.234.842.234.842.78 0 .078-.077.156.153.469l.765.156.153.702zm1.225-1.17l-.612.546c-.154-.156 0-.625-.23-.859 0-.156.153-.234.076-.312-.076-.156-.995-.546-.995-.546-.306-.234-.765-.547-1.071-.859-.306-.078-.612.078-.995.156v-.156c.153-.312.153-.78.689-.78.23 0 .612 0 .765.234.306 0 .536.312.766.39.382.39.688.624.918.78 0 .235.077.39.23.547.459 0 .306.546.459.858zm.382-2.654c0 .234-.076 1.249-.076 1.249-.153-.625-.612-1.171-1.072-1.171-.23-.234-.459-.468-.535-.78-.23-.235-.46 0-.766-.235-.306 0-.765 0-1.071.234V22.4l.612-.702c.612.078 1.301 0 1.454.39.383.234.842.468.919.702v.235c.076.156.382.234.535.312zm-.382-4.215l-.306 1.249c-.383.312-.995.156-1.455.156.613-.156 1.072-.859 1.455-1.405 0-.078.153 0 .306 0zm-1.148-1.015c0 .313-.153.78-.536 1.171-.077.078-.306.234-.306.234 0-.468.23-.936.23-1.326.23-.079.459-.235.612-.079zm-.919-1.248c-.382.39-.842.624-.995 1.092 0-.234-.076-.468-.153-.702.077-.312.306-.468.383-.546.23.078.383.078.765.156zm5.894 6.322c-.307.234-.613.234-.995.156l-.46-.703h1.225l.23.547zm-1.608-3.825c-.23.469-.459 1.015-.995 1.171-.23 0-.688.156-1.148 0 .23-.156.46-.234.842-.468l.69-.703h.611zm7.501 8.82l-.23.234c-.23-.234-.076-.937-.459-1.015-.383 0-.765-.39-.918-.468l.306-.156s.153-.078.306 0c.153.156.306.234.306.39.153.234.383 0 .612.234.077.234.154.625.077.78zm-6.046-8.117c-.077.468-.307.624-.766 1.248-.23.157-.765.235-1.224.469.076-.234.306-.312.459-.625.153-.234.536-.702.612-.936.46-.156.612-.156.919-.156zm-3.98-2.966c-.536-.156-1.072-.703-1.301-1.015-.154-.312-.23-.78-.23-1.014.306 0 .536.234.612.39v.078c.46.546.842.858.919 1.56zm6.429 6.01h-.153c-.077 0-.69-.235-.842-.39-.077-.235-.077-.469-.077-.469h.69l.382.859zm6.505 3.902c-.076.156-.23.703-.306 1.015-.153-.469-.306-1.25-.918-1.25-.077-.311-.153-.467-.46-.702l-.612-.078c.077.313.536.313.23.78.306.235.536.235.765.625.153.234 0 .625.077.78l-.46.235c0-.39.077-1.249-.459-1.405-.459.156-.612-.468-.918-.702-.153 0-.153-.39-.383-.235-.382.235-.918 0-1.3.235l.382-.703c.306-.234.689-.156.995-.234l.689-.078c.688 0 1.224.312 1.836.624.307.156.46.39.46.78 0 .079.382.079.382.313zM87.788 15.766l-.23 1.015c-.23-.469-.46-.937-.612-1.561l.842.546zm1.53 2.42c-.459-.469-.918-.937-.918-1.405.23 0 .46 0 .765.156 0 .39.153.78.153 1.249zm9.414 7.102c-.306-.234-.841-.234-.995-.702-.306-.078-.535-.078-.994-.078-.307.078-.766.078-1.072.078-.077 0 0-.078-.153-.157-.46.157-.995.157-1.454.703l.382-1.015c.307 0 .613-.156.766-.156.306-.078.612-.078.842-.078v.078c.918 0 1.913-.078 2.602.703l.076.624zm-4.974-4.761c-.153.156-.613.312-.919.312-.536-.39-.842-.858-1.301-1.56l1.301.233c.306.156.689.78.919 1.015zm-2.68-3.668c0 .624-.076 1.327-.688 1.639l-.153-.859c.23-.234.46-.39.842-.78zm7.501 6.79c-.382 0-.765 0-.995-.39-.076 0-.23-.234-.306-.078-.382.312-.842-.234-1.3-.156-.23.234-.46.39-.92.468v-.078c0-.234.154-.468.46-.703.536.156.918-.936 1.378-.312.23.078.459.078.612.078.612.234.765.703 1.071 1.171zm1.837 3.122h-.076c-.153-.234-.23-.468-.383-.468.23-.937-.23-1.717-.383-2.42v-.234c.23.39.919.859.842 1.249v1.873zm-7.577-8.585c-.383-.235-1.148-.313-.995-.859.153-.39.383-.546.612-.702.077.624.154 1.092.383 1.56zM84.42 7.336l-.383.547c.077.78-.23 1.405-.23 2.185l-.382-1.326c.077-.313.153-.625.383-1.093l.612-.312zM96.666 20.06h-.23c-.918.312-1.683-.234-2.372-.78.382-.157.995-.235 1.454-.235l.23.468c.306.078.688.39.918.547zm-4.21-6.79c-.076.468-.23 1.248-.765 1.638 0-.312-.153-.468-.306-.78-.077 0 0 .234-.077.234 0 .156-.153.468-.153.859-.153.078-.535.234-.842.078v-.234c-.076-.157-.076-.547-.076-.703l-.077-.078c-.23.078-.23.234-.23.39-.076.156-.229.312-.229.625-.306 0-.536-.078-.765-.234v-.781c0-.156 0-.156-.077-.156l-.382.39c-.307-.234-.383-.936-.383-1.327 1.301-.78 2.985-.468 3.98-.078.076.078.23.078.382.156zm2.297 4.604c-.307.078-.919.234-1.072-.156-.46-.78-.23-1.405 0-1.951.153.468.23.937.306 1.405.153.234.612.468.766.702zM84.267 6.166l-.536.156.077-.39c.153-.234.23-.469.459-.78v1.014zm13.777 12.956c-.307 0-.842 0-1.225-.234-.536-.234-.689-.39-.918-.702.306-.235.765-.235.918-.313.383.313.689.937 1.225 1.25zm-2.296-2.341c-.383.078-.766-.313-1.149-.469-.153-.468-.153-.936-.306-1.248.306.234 1.072.234.919 1.014 0 .156.306.312.536.703zm6.735 5.931c0 .469-.306.937-.383 1.405 0-.468-.076-.936-.383-1.249 0-.156.23-.156.077-.39 0 0-.46-.234-.46-.624 0-.312.307-.625.46-.859 0-.078.306.156.306.703 0 .078 0 .312-.076.468-.077.312.459.312.459.546zm1.913.937c0 .39-.459.937-.689 1.249.153-.39.153-1.249 0-1.249-.153-.078-.459 0-.459-.156 0-.234.077-.546.077-.78 0-.313-.23-.469-.23-.703 0-.546.612-.624.765-.937.077.313.077.703.077 1.093 0 .156.23.702 0 1.093 0 .312.46.078.46.39zm-6.659-7.883c-.459 0-1.071.234-1.3-.234.152-.078.306-.312.459-.468l.841.702zm2.297 1.951l-.383.156c-.919 0-1.301-.234-1.76-.624.306 0 .765-.39.765-.39.383.39.995.78 1.378.858zm-3.368-5.307c-.995-.546-2.067-.937-3.291-1.015 0 .234 0 .469-.077.547.919.468 1.837.858 2.68 1.639v.78c-.843-.858-1.761-1.717-2.756-1.951-.077.156-.383.312-.46.702-.612-.39-1.224-.858-1.913-.936-.23 0-.383-.859-.383-.859.383-.156.69-.39.842-.858h.307c.23 0 .23-.156.23-.39 0-.469-1.072-.469-1.532-.469-.612 0-.995 0-1.3.234-.154 0-.077.234-.077.39 0 .079.23.235.23.235.152 0 .306-.156.535-.156-.076.546.077.78.612 1.014l-.076.78c-.995 0-1.684.39-2.373.781-.23-.156-.382-.39-.612-.702-.995.312-2.679 1.717-2.679 1.717v-.625c.766-.702 1.684-1.014 2.45-1.404v-.547c-.307-.156-.69 0-.996 0-.688.078-1.454.39-1.913.78 0-.233-.077-.546-.077-.546.919-.468 1.99-.936 3.062-.78v-.312c-.077-.156-.077-.39-.23-.39-.459-.469-.995-1.25-.995-1.796l.306-.156c-.153-.468-.306-1.717 0-2.185-.459-.234-.918-.703-1.071-1.015-.153-.39-.306-.702-.383-1.17.23-.469.383-.703.613-1.171.153 0 .382-.078.459-.235.382-.078.689-.468 1.148-.234.306 0 .689.156.918.234 0 .157 0 .235.153.39.46 0 .46.469.766.937.23.078.459.078.689.078.459.156.918.156 1.071.39.689-.39 1.301-.468 2.067-.39.076-.234.23-.624.306-1.014.076.234.076 0 .23 0 .305-.234.688-.703 1.224-.469.306.235.918.078 1.224.469.23.312.383.858.69 1.249-.23.468 0 1.17-.46 1.404l-.536.469c-.153 0-.153.156-.382.156.23.624.076 1.405-.153 1.951.153-.078.382-.078.382-.312.077.078 0 .234 0 .312v.234c0 .39-.23.859-.612 1.17-.153.47-.612 1.172-1.148 1.25v.312c1.224 0 2.22.312 3.368.937v.546h-.077zm6.353 8.117c0 .156-.23.312-.307.312 0 0-.382-.39-.459-.78-.076-.313.23-.937.23-.937.076 0 .153.156.23.156.076.078 0 .312.076.625.23.156.383.468.23.624zm6.658 5.776l-.153.156c-.383-.156-.612-.234-1.148-.234 0-.313-.23-.78-.383-.78-.459 0-.382.311-.841.311l.765-.78c.076-.156.076-.156.23-.156.23.156.306.234.612.234 0 .156 0 .234-.077.468.23.156.383-.078.536.156.23.234.46.312.46.625zm-7.73-7.571c0 .234-.153.312-.306.468 0 0-.306-.39-.306-.624 0-.312 0-.469.076-.78.23.311.536.624.536.936zm3.215 2.42c0 .546-.077 1.092-.077 1.716-.23 0-.23-.156-.23-.546-.076-.468-.23-.936-.382-1.405-.153-.624-.613-1.249-.919-1.951-.076-.312-.535-.468-.842-.78.383 0 .842 0 1.148.312 0 .156.077.234.307.468.612 0 .382.78.918 1.093-.23.234-.306.39-.46.546.23.234.46.312.537.546zm-4.21-4.762c-.23.235-.918.313-1.378-.078l.69-.312c.152.234.535.312.688.39zm-1.837-1.873c-.076.312-.383 0-.46 0h-.764c-.077-.156-.154-.234-.154-.39.307-.078.613-.234.842-.078.153.234.307.468.536.468zm7.195 6.556c0 .313-.153.625-.077.937-.153-.546-.536-1.015-.689-1.483 0-.078-.076-.078.077-.156.076 0 .382 0 .382.078.154.156.307.39.307.624zm4.133 3.513c0 .312-.077.39-.153.858-.536-.078-.536-.78-.613-.858-.382-.469-.918-.078-1.377-.078-.154-.469.076-.469.076-.859.23 0 .46-.156.765 0 .383-.156.613.234.995.234.077.156.23.625.307.703zm1.683 2.341c-.153.234-.153.234-.23.468 0-.39-.535-.624-.841-1.327l.306-.624c.23.156.612.39.612.859 0 0-.076.156 0 .39 0 .078.153.078.153.234zM98.58 12.644c-.459 0-.765-.234-.995-.702 0-.235-.076-.547 0-1.015.153.312.153.468.307.702.306-.156.306.235.382.313.077.234.306.468.306.702zm6.965 6.244c-.765-.39-1.148-1.17-1.837-1.951.69 0 .842.702 1.301.78.154.156.307.234.46.469v.702h.076zm5.128 4.761c-.612 0-.23-1.17-1.454-1.17-.23 0-.383.39-.689.468 0-.079.077-.625.077-.625 0-.156.076-.468.382-.702.613 0 .46.234.919.39.23.078.383.234.765.234v1.405zm1.99 1.093c0 .468 0 .702-.23 1.092l-.459-.78c.153-.234.153-.625.383-1.015.077 0 .306.625.306.703zM96.82 8.663c0 .079-.153.859-.153.859l-.689.156.383-1.795c.23.312.459.624.459.78zm14.312 13.113c-.23-.078-.841-.156-.841-.39 0-.313-.154-.39-.536-.39-.306 0-.536.077-.995.233 0 0-.23-.312-.306-.702.153-.078.842-.234 1.148-.234.535 0 1.148 0 1.148.234-.153.312.382.39.382 1.249zm.766-1.795c-.612 0-1.148-.156-1.225-.39-.153-.157 0-.469-.382-.469-.154 0-.383.234-.383.234-.153.078-.612-.234-.612 0 0 .39-.307.625-.69.625-.152 0-.305 0-.459-.078v-.859c1.072 0 .995-.312 1.455-.312.306 0 .535.156.765.156.383 0 .153-.156.612-.156.383 0 .613.312.842.39-.23.156.077.468.077.859zm-.306-1.874c-.69-.39-1.684-.702-2.22-.702-.306 0-1.301.39-1.607.78l-.153-.78c.535-.078.535-.546.842-.546.23 0 .535-.078.765-.078.23 0 .383-.156.46-.156.382 0 .229.39.458.39.23 0 .383-.156.613-.156.459.078.765.78.842 1.248zm-1.837-1.873c-.46 0-.536-.078-.842-.078-.383 0-.919.156-1.148.547-.153-.313-.077-.469 0-.703.23-.234.689-.624.995-.624.536.078.995.468.995.858zm.076-1.17c-.535-.157-.842-.39-1.3-.39-.154 0-.92.233-.996.39-.23-.313.153-1.015.46-1.171.306-.156.459-.078.688 0 0 .468.536.234.842.39.153.234.23.39.306.78zm1.914-9.6h-.919c-.153-.235-.382 0-.612 0-.153 0-.23 0-.536-.235.46 0 .766-.234 1.148-.39.383.156.69.234.919.624zm2.525 1.717c-.153-.313-.535-.547-.765-.547-.23-.312-.612-.78-.918-.78.23 0 .612-.234.995-.234.153.39.535.702.612 1.014l.076.547zM92.686 28.33c-.076 0 .077.157-.765-.702-.153 0-.383.469-.383.703 0 .702.153 1.639.383 2.263h.689c0-.702.076-1.56.076-2.263zm1.76.079c0-.312-.23-.39-.612-.39-.153 0-.536.234-.536.39 0 .312-.153 2.185-.153 2.185h.536c.306-.702.765-1.717.765-2.185zm10.792-1.015l-.842.078c.306.156.306.625.306.703 0 .234-.153.468-.306.702-.153-.156-.153-.39-.306-.702-.153 0-.23.39-.23.624 0 .78.307 1.327.613 1.873h.765c-.076-.702-.23-1.248-.23-2.029-.076-.468.154-1.015.23-1.249zm17.757-7.57c0-3.669-1.455-7.337-4.133-9.99-1.148-1.172-2.373-1.718-3.368-2.889-.46-.468-.842-1.014-1.225-1.717-.382-.39-.688-.702-1.148-.936.077.234.153.468.23.78h-.077c-.382 0-.841-.234-1.148-.546l.307-.312c-.077-.156-.307-.156-.46-.156-1.3-.235-2.525.468-3.827.78v.156c.842.234.995 1.249 1.455 1.795h.459c.153 0 .383.156.612.156 0-.156-.153-.468-.153-.468.153-.156.306-.156.46 0 .382.234.994-.156 1.377.468-.46 0-.995 0-1.378.235 0 .078.23.234.153.39-.382-.156-.918 0-1.071-.312l-.077.078c.46.624 1.225 1.092 1.99 1.326 1.072.157 1.99-.312 3.062-.078 3.75 1.874 6.352 6.166 6.352 10.537 0 6.166-3.444 8.664-5.663 8.664-.383 0-1.072-.235-1.301-.469.23-.858.382-1.873.382-3.356 0-3.59-1.377-7.493-3.29-9.444-.92-.936-1.914-1.717-2.91-1.717-.459 0-.994 0-1.3.39-.383.313-.69 1.015-.613 1.405-.689.547-1.76.78-2.525.78-.919 0-2.067-.311-3.062-1.17v-1.249c-.23-.078-1.071-.624-.689-1.014.23.078.383.234.46.312-.077-.547-.077-1.249-.46-1.717-.153 0-.382 0-.689-.156-.23-.235-.535-.625-.535-1.015.23.39.689.234.918.468-.383-1.014-.23-1.405-.995-2.888-.153-.78-.918-1.17-1.378-1.717-.23-.156-.306-.39-.612-.39-.306-.078-.306-.468-.306-.78.077 0 .306.156.46.234-.46-1.171-.843-2.42-1.914-3.044l-.23.156h-1.3c.152-.156.458-.234.764-.39-.23-.235-.382-.313-.918-.313-.23.078-.536.313-.842.313h-.076c0-.235-.077-.625.382-.78-.459-.079-.918-.079-1.454 0-.076.39-.306.702-.306 1.014-.23.156-.306.39-.612.702 0-.546.23-1.014.306-1.483-.306.078-.766.312-.919.312C89.548.312 88.706 0 88.4 0c.46.312.23.937.306 1.327L88.4 1.17c-.077-.312-.46-.625-.536-1.015-.459 0-.842.156-1.224.39v.078c.23 0 .612.235.765.469-.612 0-.995-.234-1.607-.234 0 0 0-.079-.077-.079-.23.079-.459.313-.612.469-.612.546-.995.936-1.225 1.639.153 0 .383 0 .46.078-.307.078-.46.468-.842.624v1.25c-.23.233-.613.467-.766 1.014-.382 1.327-.459 2.81-.459 4.527-.076.312-.23.39-.383.468v1.327s.46-.469.766-.625v1.015c-.306 0-.613.39-.613.702 0 .313.077.703.077 1.015 0 .156 0 .156.077.312 0-.156.153-.312.382-.39 0 0 .153-.156.46-.156-.23.234-.307.624-.46.936l-.23.235s-.076.156-.076.234c.306 1.717.842 3.278 1.454 4.917-.689 1.093-1.377 3.2-1.913 5.23-.383-.391-.995-.47-1.454-.47-.46.079-.919.235-1.301.781-.46-.234-1.149-.156-1.455.156-.689.625-.689.937-.689 1.405-.153.156-.535.625-.535 1.171 0 .78.076 1.249.535 1.951h12.4c-.077-.234-.23-.546-.383-.78-.23-.468-.077-1.17-.077-1.717.23-.469.46-1.015.842-1.405.077-.234 0-.234.077-.312l.612-.078c.306 0 .612-.235.995-.235.23.313.23-.234.689-.39.918-.156 1.76 0 2.22.703 0 .078.076.078.076.156h-.383c-.459-.156-.995-.39-1.607-.156 0 .156-.077.156-.077.468v.39c.307 0 .613.312.919.469.153-.235.612-.469.918-.469.383 0 .995.234.995.937v.936c.306.313.766.39 1.148.625-.153.312-.382.312-.689.312h-.688c-.077-.078-.23-.078-.23-.312-.23.312-.383.702-.612 1.014h9.567c-.153-.312-.306-.546-.383-.78-.153-.468-.153-1.17-.153-1.717l.919-1.249c.459 0 .918-.156 1.836-.234.153-.234 0-.39.766-.39.612 0 .995.078 1.148.156.076.156.076.156 0 .312-.153.156-.46-.156-.766-.078-.153.156.077.234.077.39.153.156-.765-.156-.765-.156l-.23.703.46.468c.152.234-.23.468-.23.78-.153-.078-.536-.312-.536-.234-.153.703 0 1.249-.077 1.951h.919l.076-1.404c.077-.859 1.072-2.342 1.684-2.342.306 0 .612.156.842.312.153.312.536.469.536.625 0 .156-.23.234-.613.234-.153 0-.153-.234-.382-.39l-.46.468s.613.468.613.858c0 .39-.077.625-.306.859l-.69-1.015c-.229 0-.688.469-.688.78 0 .313-.153.547-.153 1.015h5.051c.536 0 1.072-.156 1.684-.468h.995c2.067 0 3.597-.624 5.128-2.107 1.914-2.03 3.062-5.23 3.062-8.273zm-31.687 10.77c-.382-.78-.459-1.95-.459-2.185 0-.39 0-1.015.23-1.405l-.919.156c-.23.312-.306.468-.306.625l.383-.157c.076 0 .153.157.23.313-.077.39-.613.39-.766.624-.23.859.46 1.327.612 2.03h.995z" transform="translate(.778 .943)"/>
        <path fill="#00205C" fill-rule="nonzero" d="M60.617 18.42H70.95v.936c-2.603 0-2.526.859-2.526 3.356v6.01c-3.291 1.717-6.353 2.498-9.49 2.498-8.573 0-13.777-5.152-13.777-11.63 0-7.024 5.893-12.878 13.394-12.878 1.837 0 3.29.312 4.745.859 1.071.312 1.684.702 2.373.702.612 0 .765-1.014.841-1.56h.842l.766 8.116h-.995c-.383-1.639-1.148-2.887-2.143-3.824-1.531-1.64-3.674-2.42-6.123-2.42-5.128 0-8.19 4.137-8.19 10.459 0 6.166 3.674 10.38 8.572 10.38 1.455 0 2.756-.312 4.363-1.092v-6.166c0-1.951-.306-2.732-3.138-2.732V18.42h.153zM34.901 8.117c3.138 0 2.985 1.405 2.985 4.761v8.273c0 .625 0 .859.076 1.25L23.573 7.18h-7.806v.858c3.29 0 3.29 2.107 3.29 3.98v12.957c0 3.2 0 4.683-3.137 4.683v.936h8.266v-.936c-3.062 0-3.062-1.249-3.062-4.683V13.659c0-.469 0-.937-.076-1.405L38.65 30.75h1.378v-17.95c0-3.435.153-4.762 3.214-4.762v-.858h-8.342v.936zM0 8.117c2.296 0 3.368.078 3.368 3.122v15.376c0 2.966-1.378 3.122-3.368 3.122v.936h11.634V29.66c-2.143 0-3.368-.156-3.368-3.122V11.16c0-3.044.995-3.122 3.368-3.122v-.858H0v.936z" transform="translate(.778 .943)"/>
    </g>
</svg>
