<svg xmlns="http://www.w3.org/2000/svg" width="128" height="35" viewBox="0 0 128 35">
    <path fill="#EB008B" fill-rule="evenodd" d="M102.472 26.67s1.728-11.663 1.881-12.688c.153-1.024.985-2.899 2.286-3.934 1.302-1.036 2.965-1.755 4.977-1.755 2.013 0 3.194.49 3.873.861.678.37 1.115.84 1.115.84s.558-.545 1.652-.993c1.094-.446 1.849-.719 3.62-.719 1.773 0 3.425.567 4.146 1.275.722.709.963 1.134 1.236 2.366 0 0 .143.893-.043 2.18-.186 1.286-1.838 12.566-1.838 12.566h-4.671s1.63-11.117 1.718-11.76c.087-.643.273-1.984-.175-2.572-.449-.589-1.258-.742-1.87-.698-.614.044-1.882.23-2.222 2.246-.338 2.016-1.936 12.784-1.936 12.784h-4.648s1.706-11.553 1.783-12.163c.076-.61.185-2.05-.635-2.573-.82-.523-2.297-.403-2.899.425-.601.83-.733 1.232-.94 2.497-.208 1.264-1.74 11.814-1.74 11.814h-4.67zM89.312 8.86h4.639s-1.718 11.684-1.849 12.556c-.131.872-.044 2.245.766 2.638.81.392 2.122.327 2.669-.153.547-.48 1.05-.959 1.334-2.485.285-1.526 1.903-12.578 1.903-12.578h4.573s-1.553 10.768-1.729 12.077c-.174 1.307-.809 3.509-2.209 4.62-1.4 1.113-2.91 1.68-6.563 1.68-3.653 0-5.076-2.18-5.294-3.597-.219-1.417-.066-2.769.24-4.687.307-1.918 1.52-10.071 1.52-10.071zM62.044 26.67l1.882-12.688c.153-1.024.984-2.899 2.286-3.934 1.301-1.036 2.964-1.755 4.977-1.755 2.012 0 3.194.49 3.872.861.678.37 1.116.84 1.116.84s.558-.545 1.651-.993c1.094-.446 1.85-.719 3.621-.719 1.772 0 3.424.567 4.145 1.275.723.709.963 1.134 1.237 2.366 0 0 .142.893-.044 2.18-.186 1.286-1.838 12.566-1.838 12.566h-4.67s1.63-11.117 1.717-11.76c.088-.643.273-1.984-.175-2.572-.449-.589-1.258-.742-1.87-.698-.613.044-1.882.23-2.221 2.246-.339 2.016-1.936 12.784-1.936 12.784h-4.649s1.706-11.553 1.783-12.163c.077-.61.186-2.05-.634-2.573-.821-.523-2.297-.403-2.9.425-.6.83-.732 1.232-.94 2.497-.207 1.264-1.739 11.814-1.739 11.814h-4.67zm-22.14-2.246s5.437-7.433 5.547-7.597c.109-.163.142-.567-.011-.85-.153-.283-3.457-5.907-3.621-6.224-.164-.316-.372-.937-.077-2.18.296-1.242 1.072-1.612 1.422-1.667.35-.054.69.077 1.094.698.405.62 3.72 5.57 3.862 5.787.142.218.371.284.557.022.186-.262 6.924-9.515 7.252-9.962.329-.447 1.16-1.34 1.959-1.46.798-.12 1.4-.022 1.958.392.557.414 1.039 1.275.94 2.169-.098.894-.59 1.668-1.378 2.66-.787.99-7.887 9.602-8.073 9.809-.186.207-.197.534-.153.806.044.273.492.861.657 1.101.164.24 4.43 6.562 4.43 6.562l2.275-15.652h4.42L60.347 26.68h-2.582l2.286 3.39-4.506 3.564s-7.307-12.697-7.417-12.883c-.109-.185-.273-.447-.634.01-.36.459-6.038 7.445-6.038 7.445l-1.553-3.782zm6.783-19.728c.396-1.878 1.808-3.4 3.154-3.4 1.345 0 2.115 1.522 1.72 3.4-.396 1.878-1.808 3.4-3.154 3.4-1.346 0-2.115-1.522-1.72-3.4zM28.09 9.993s1.379-.98 4.835-1.504c3.456-.523 4.682.131 6.213 1.264 1.531 1.134 1.531 3.096 1.356 4.338-.175 1.243-1.509 10.268-1.509 10.268l-1.181.915c-1.466 1.068-3.479 1.657-5.907 1.875-2.428.218-5.557-.414-6.738-3.074-1.182-2.659-.482-6.038 2.8-7.694 3.281-1.657 8.226-1.57 8.226-1.57s.372-1.482-.438-2.202c-.901-.801-1.838-.545-3.872-.218-2.035.327-4.31 1.297-4.31 1.297l.525-3.695zm7.68 7.848s-1.03.065-1.773.13c-.744.066-1.881.175-3.347.72-1.466.545-2.035 1.679-2.035 2.856 0 1.09.613 2.31 2.582 2.441 1.969.13 3.806-1.133 3.806-1.133l.766-5.014zM0 26.669l1.882-12.687c.153-1.024.984-2.899 2.286-3.934C5.47 9.012 7.132 8.293 9.145 8.293c2.012 0 3.194.49 3.872.861.678.37 1.116.84 1.116.84s.558-.545 1.652-.993c1.093-.446 1.848-.719 3.62-.719s3.424.567 4.146 1.275c.722.709.962 1.134 1.236 2.366 0 0 .142.893-.044 2.18-.186 1.286-1.838 12.566-1.838 12.566h-4.67s1.63-11.117 1.717-11.76c.087-.643.274-1.984-.175-2.572-.449-.589-1.258-.742-1.87-.698-.613.044-1.882.23-2.221 2.246-.34 2.016-1.936 12.784-1.936 12.784H9.1s1.706-11.553 1.783-12.163c.077-.61.186-2.05-.634-2.573-.82-.523-2.298-.403-2.899.425-.602.83-.733 1.232-.941 2.497-.208 1.264-1.739 11.814-1.739 11.814H0z"/>
</svg>
