<svg xmlns="http://www.w3.org/2000/svg" width="139" height="23" viewBox="0 0 139 23">
    <path fill="#782A90" fill-rule="evenodd" d="M34.017.708c.256 0 .404.245.344.461L29.188 20.5c-.041.155-.208.282-.37.282h-8.553c-.178 0-.323-.129-.363-.283l-2.232-8.936c-.067-.266-.206-.269-.276 0l-2.164 8.936c-.037.154-.17.283-.362.283H6.172c-.182 0-.325-.127-.365-.282L.676 1.143C.63.973.756.707 1.034.707l8.501.001c.158 0 .316.091.357.305l1.792 9.512c.046.242.25.242.295-.006l1.91-9.513c.038-.16.163-.3.363-.3l6.668.002c.175 0 .321.131.35.289l1.814 9.53c.045.241.223.24.27 0L25.291.995c.03-.156.188-.287.35-.287h8.376zm57.54.371c0-.221.176-.367.365-.37h7.305c.16 0 .366.121.366.376v12.65c0 .094.087.17.182.17h11.936c.196 0 .361.158.361.373v6.15c0 .173-.141.354-.364.354H91.915c-.2 0-.357-.17-.357-.362V1.08zm46.914 9.693c0-4.03-.71-7.703-4.3-9.218-2.398-1.013-6.51-1.123-8.6-1.09-7.013.115-11.132.53-11.132.53-.177.016-.33.154-.33.37V20.18c0 .21.19.342.287.35 3.105.35 7.167.561 11.175.561 2.091 0 6.505-.282 8.6-1.128 3.622-1.437 4.3-5.16 4.3-9.192zm-16.382 3.206V7.702c.001-.131.108-.18.165-.185.963-.077 2.343-.127 3.595-.127 3.88 0 4.163.76 4.163 3.496 0 2.736-.284 3.496-4.163 3.496-1.299 0-3.47-.124-3.47-.124-.278-.01-.29-.119-.29-.28zm-69.5-3.092c0-3.074-.707-4.087-4.357-4.087-3.65 0-4.388 1.013-4.388 4.087 0 3.072.738 4.09 4.388 4.09s4.358-1.018 4.358-4.09zm8.658-.14c0 4.03-.678 7.978-4.3 9.415-1.699.678-4.67 1.1-8.743 1.1-4.076 0-7.074-.422-8.773-1.1-3.62-1.437-4.3-5.385-4.3-9.415 0-4.032.68-7.952 4.3-9.39 1.699-.675 4.697-1.1 8.773-1.1 4.073 0 7.044.425 8.743 1.1 3.622 1.438 4.3 5.358 4.3 9.39zm28.114 9.417c-2.044-2.036-4.335-4.096-6.831-6.033l-.324-.255c.137-.018.273-.041.406-.065 3.524-.64 5.42-3.903 5.42-6.476 0-2.82-.685-5.4-4.216-6.428C80.686-.008 64.142.52 64.142.52c-.163.01-.33.146-.337.353l-.002 19.554c0 .179.147.357.362.357l7.32-.003c.18 0 .357-.14.357-.355v-6.318s-.001-.1.09-.156c.07-.047.156-.028.221.03.026.02 5.119 4.364 7.175 6.695.061.068.149.111.247.111h9.532c.154 0 .248-.074.323-.188.075-.112.063-.306-.07-.438zm-17.52-10.12v-3.63s-.008-.077.053-.133c.03-.026.07-.05.123-.05.989 0 2.014-.037 3.02-.037.92 0 1.899.023 2.802.048 1.23.035 1.818.586 1.818 1.77 0 1.502-.592 2.148-1.875 2.185-.903.027-1.826.038-2.744.038-1.019 0-2.027.005-3.026-.026-.168-.1-.171-.165-.171-.165z"/>
</svg>
