<svg xmlns="http://www.w3.org/2000/svg" width="140" height="26" viewBox="0 0 140 26">
    <g fill="none">
        <path fill="#00427A" d="M78.371 5.305c2.229 0 2.848 2.097 2.848 4.07v7.28c0 2.344-.371 4.44-3.095 4.44-1.486 0-2.353-.493-2.972-1.356v4.688H71.19V5.675h3.962v1.48c.743-1.357 1.61-1.85 3.22-1.85zm37.762.123c2.6 0 4.953 1.11 4.953 4.565v3.948h-5.82v3.577c0 .617.248.987.867.987.62 0 .867-.37.867-.987v-2.22h4.086v1.727c0 2.96-2.105 4.194-4.953 4.194-2.6 0-4.952-1.233-4.952-4.194V9.869c0-2.837 1.733-4.44 4.952-4.44zm-51.752-.247c3.343 0 4.952 1.85 4.952 3.948v11.597h-3.962l-.123-.74c-.743.74-1.486 1.11-2.972 1.11-1.61 0-2.847-1.48-2.847-3.331v-2.59c.123-4.195 5.819-2.962 5.819-6.046 0-.617 0-1.233-.743-1.233s-.867.493-.867 1.233v1.234h-4.21V9.129c0-2.714 2.353-3.948 4.953-3.948zM132.724.864v19.985h-3.838v-1.727c-.372 1.357-1.61 1.85-3.096 1.85-2.476 0-2.971-2.097-2.971-3.947V9.623c0-2.344.62-4.442 2.971-4.442 1.362 0 2.477.617 2.972 1.357V.864h3.962zm-45.562 4.81V20.85H83.2V5.675h3.962zm51.505 0V20.85h-3.962V5.675h3.962zM93.6.74v6.292L96.448.74h4.457l-4.086 8.513 4.457 11.473H96.82l-2.6-6.909-.619.987v5.922h-4.457V.74H93.6zm16.467 4.565l-.124 4.441c-.99-.37-3.59-.37-3.59 1.974v9.006h-3.963V5.675h3.715v1.604c1.362-1.974 2.847-1.974 3.962-1.974zM52.867.864l1.485 5.551L55.838.864h4.705L56.58 12.09v8.636h-4.457V12.09L48.162.864h4.705zM65.247 13.2h-.123c-.99.617-1.61.987-1.61 2.22v1.851c0 .864.248 1.234.867 1.234s.867-.37.867-1.234v-4.07zm10.896-4.688c-.495 0-.867.37-.867 1.11v7.156c0 .74.372 1.11.867 1.11s.99-.37.99-1.11V9.623h-.123c0-.74-.372-1.11-.867-1.11zm51.876 0c-.495 0-.99.37-.99 1.11v7.156c0 .74.371 1.11.866 1.11s.867-.37.867-1.11V9.499h.124c0-.74-.372-1.11-.867-.987zm-12.01-.493c-.619 0-.866.37-.866.987v2.097h1.733V9.006c0-.617-.247-.987-.866-.987zM138.668.864V4.07h-3.962V.864h3.962z" transform="translate(.667 .486)"/>
        <path fill="#A7A9AC" d="M41.476 16.778c-1.61 1.357-3.59 1.727-5.324.987-.99-.494-1.733-1.357-1.98-2.22 1.361 1.356 3.961 2.097 6.314-.37 0 0 2.228-1.975.99-5.8-.619-1.85-2.971-3.453-4.828-3.7-2.848-.494-5.572.493-7.429 3.084-2.229 3.454-2.476 7.155-4.086 10.98-.247.617-.866.863-1.362.863-.619 0-1.114-.246-1.361-.863-1.61-3.825-1.858-7.649-4.086-10.98-1.857-2.59-4.581-3.578-7.429-3.084-2.228.247-4.58 1.727-5.076 3.7-1.238 3.825.99 5.8.99 5.8 2.353 2.467 4.953 1.726 6.315.37-.248.863-.99 1.85-1.981 2.22-1.733.74-3.714.37-5.324-.987-2.352-2.22-2.6-5.181-1.733-7.896C5.2 5.675 8.543 3.948 11.143 3.824c3.095-.246 7.428 1.604 9.162 4.935.371.74 1.238 2.714 1.238 2.714H26s.867-1.974 1.238-2.714c1.733-3.207 6.067-5.181 9.162-4.935 2.6.247 5.943 1.85 7.057 5.058.62 2.715.372 5.675-1.98 7.896m5.2-8.76C44.076.74 36.77.248 36.028.248c-3.22-.124-6.934 1.11-9.658 3.7-1.114 1.111-1.98 2.221-2.723 3.455-.867-1.234-1.61-2.344-2.724-3.33C18.2 1.356 14.486.246 11.267.37 10.524.37 3.219.74.619 8.142c-.867 2.591-.743 6.045.62 8.513 1.361 2.837 4.58 5.181 7.923 4.934 2.476-.123 5.2-1.603 6.19-4.194.867-2.22.62-4.688-1.362-6.662 0 .493.124 1.234-.371 1.85-.743 1.11-1.98 1.358-3.219.864-1.238-.493-1.61-1.234-1.486-2.344.124-.864.867-1.604 1.61-1.974 1.486-.617 2.847-.37 4.21.987 2.228 2.467 2.476 6.168 3.466 9.006.743 2.344 1.857 4.318 4.457 4.935.372.123.62.123.99.123.372 0 .62 0 .991-.123 2.6-.617 3.714-2.591 4.457-4.935.99-2.838 1.362-6.539 3.467-9.006 1.362-1.234 2.724-1.604 4.21-.987.742.37 1.485.987 1.609 1.974.124 1.11-.248 1.85-1.486 2.344-1.238.494-2.476.247-3.219-.864-.495-.616-.495-1.357-.371-1.85-1.981 1.974-2.229 4.318-1.362 6.662.99 2.467 3.714 4.07 6.19 4.194 3.343.247 6.686-2.097 7.924-4.934 1.238-2.591 1.486-6.045.62-8.636" transform="translate(.667 .486)"/>
    </g>
</svg>
